<svg width="245" height="21" viewBox="0 0 245 21" fill="none" xmlns="http://www.w3.org/2000/svg">
<path d="M20.9406 2.43617C20.9406 1.09071 19.8499 0 18.5045 0H2.43617C1.09071 0 0 1.09071 0 2.43617V11.5174L10.4703 5.93318L13.9604 12.9134L16.0545 12.2154L20.9406 20.9406V2.43617Z" fill="white"/>
<path d="M10.4703 5.93318L0 19.8936V11.5174L10.4703 5.93318Z" fill="white"/>
<path d="M64.3028 20.9406C62.4458 20.9406 60.7643 20.7228 59.2581 20.2872C57.7725 19.8516 56.4829 19.1982 55.3894 18.3269C54.3165 17.4557 53.4912 16.3771 52.9135 15.091C52.3357 13.8048 52.0469 12.3217 52.0469 10.6415C52.0469 8.94048 52.3461 7.43657 52.9444 6.12973C53.5634 4.80214 54.43 3.68198 55.5441 2.76927C56.679 1.85655 58.0201 1.17201 59.5676 0.715653C61.1357 0.238551 62.8688 0 64.767 0C67.016 0 68.9555 0.321526 70.5855 0.964577C72.2155 1.58688 73.4948 2.46849 74.4232 3.60938C75.3723 4.75028 75.9088 6.10898 76.0326 7.68549H72.0711C71.8029 6.85575 71.3592 6.1401 70.7403 5.53853C70.1419 4.91623 69.3475 4.43913 68.3572 4.10723C67.3668 3.75459 66.1701 3.57827 64.767 3.57827C62.972 3.57827 61.4348 3.86868 60.1556 4.4495C58.897 5.03032 57.9376 5.84969 57.2773 6.90761C56.6171 7.96553 56.2869 9.21015 56.2869 10.6415C56.2869 12.0313 56.5758 13.2344 57.1535 14.2508C57.7312 15.2465 58.6184 16.014 59.8152 16.5534C61.0325 17.0927 62.58 17.3624 64.4576 17.3624C65.9019 17.3624 67.1708 17.1757 68.2643 16.8023C69.3785 16.4082 70.307 15.8896 71.0498 15.2465C71.7925 14.5827 72.3187 13.8463 72.6282 13.0373L74.2375 12.4461C73.9693 15.1221 72.9583 17.2068 71.2045 18.7003C69.4713 20.1939 67.1708 20.9406 64.3028 20.9406ZM73.1853 20.5361C73.1853 19.8931 73.2265 19.1567 73.3091 18.3269C73.3916 17.4765 73.4948 16.626 73.6186 15.7755C73.7423 14.9043 73.8558 14.1056 73.959 13.3796H64.798V10.7348H76.7444V20.5361H73.1853Z" fill="white"/>
<path d="M89.8998 20.9406C87.2382 20.9406 84.9582 20.5258 83.06 19.696C81.1824 18.8455 79.7381 17.6424 78.7271 16.0866C77.7367 14.5309 77.2416 12.664 77.2416 10.4859C77.2416 8.28706 77.7367 6.40976 78.7271 4.854C79.7381 3.29823 81.1824 2.10547 83.06 1.27573C84.9582 0.425243 87.2382 0 89.8998 0C92.5821 0 94.862 0.425243 96.7396 1.27573C98.6172 2.10547 100.051 3.29823 101.042 4.854C102.053 6.40976 102.558 8.28706 102.558 10.4859C102.558 12.664 102.053 14.5309 101.042 16.0866C100.051 17.6424 98.6172 18.8455 96.7396 19.696C94.862 20.5258 92.5821 20.9406 89.8998 20.9406ZM89.8998 17.3624C91.5505 17.3624 92.9948 17.1134 94.2327 16.6156C95.4913 16.1178 96.4714 15.3606 97.1729 14.3442C97.8951 13.3277 98.2561 12.0416 98.2561 10.4859C98.2561 8.93011 97.8951 7.64401 97.1729 6.62757C96.4714 5.61114 95.4913 4.854 94.2327 4.35615C92.9948 3.83756 91.5505 3.57827 89.8998 3.57827C88.2698 3.57827 86.8152 3.83756 85.536 4.35615C84.2567 4.854 83.256 5.61114 82.5339 6.62757C81.8117 7.64401 81.4507 8.93011 81.4507 10.4859C81.4507 12.0416 81.8117 13.3277 82.5339 14.3442C83.256 15.3606 84.2567 16.1178 85.536 16.6156C86.8152 17.1134 88.2698 17.3624 89.8998 17.3624Z" fill="white"/>
<path d="M107.598 0.4045V17.0823H120.906V20.5361H103.481V0.4045H107.598Z" fill="white"/>
<path d="M124.76 16.1489V12.6951H138.006V16.1489H124.76ZM119.777 20.5361L129.185 0.4045H133.642L143.144 20.5361H138.656L130.423 2.39588H132.404L124.233 20.5361H119.777Z" fill="white"/>
<path d="M153.476 20.9406C151.619 20.9406 149.937 20.7228 148.431 20.2872C146.945 19.8516 145.656 19.1982 144.562 18.3269C143.489 17.4557 142.664 16.3771 142.086 15.091C141.508 13.8048 141.22 12.3217 141.22 10.6415C141.22 8.94048 141.519 7.43657 142.117 6.12973C142.736 4.80214 143.603 3.68198 144.717 2.76927C145.852 1.85655 147.193 1.17201 148.74 0.715653C150.308 0.238551 152.042 0 153.94 0C156.189 0 158.128 0.321526 159.758 0.964577C161.388 1.58688 162.667 2.46849 163.596 3.60938C164.545 4.75028 165.082 6.10898 165.205 7.68549H161.244C160.976 6.85575 160.532 6.1401 159.913 5.53853C159.315 4.91623 158.52 4.43913 157.53 4.10723C156.54 3.75459 155.343 3.57827 153.94 3.57827C152.145 3.57827 150.608 3.86868 149.328 4.4495C148.07 5.03032 147.11 5.84969 146.45 6.90761C145.79 7.96553 145.46 9.21015 145.46 10.6415C145.46 12.0313 145.749 13.2344 146.326 14.2508C146.904 15.2465 147.791 16.014 148.988 16.5534C150.205 17.0927 151.753 17.3624 153.63 17.3624C155.075 17.3624 156.343 17.1757 157.437 16.8023C158.551 16.4082 159.48 15.8896 160.222 15.2465C160.965 14.5827 161.491 13.8463 161.801 13.0373L163.41 12.4461C163.142 15.1221 162.131 17.2068 160.377 18.7003C158.644 20.1939 156.343 20.9406 153.476 20.9406ZM162.358 20.5361C162.358 19.8931 162.399 19.1567 162.482 18.3269C162.564 17.4765 162.667 16.626 162.791 15.7755C162.915 14.9043 163.029 14.1056 163.132 13.3796H153.971V10.7348H165.917V20.5361H162.358Z" fill="white"/>
<path d="M167.157 20.5361V0.4045H180.744C182.291 0.4045 183.632 0.622307 184.767 1.05792C185.923 1.47279 186.82 2.13659 187.46 3.04931C188.099 3.94128 188.419 5.09255 188.419 6.50311C188.419 7.45731 188.254 8.26631 187.924 8.93011C187.594 9.5939 187.13 10.1332 186.531 10.5481C185.954 10.963 185.283 11.2845 184.52 11.5127C183.756 11.7201 182.941 11.855 182.075 11.9172L181.641 11.6683C183.086 11.689 184.272 11.8135 185.201 12.0416C186.129 12.2491 186.82 12.6432 187.274 13.224C187.749 13.7841 187.986 14.6242 187.986 15.7444V20.5361H183.87V16.0244C183.87 15.2569 183.736 14.6657 183.467 14.2508C183.199 13.8152 182.714 13.5144 182.013 13.3485C181.332 13.1825 180.341 13.0996 179.042 13.0996H171.273V20.5361H167.157ZM171.273 9.86357H180.744C181.899 9.86357 182.776 9.58353 183.374 9.02346C183.993 8.46338 184.303 7.70624 184.303 6.75203C184.303 5.83932 183.993 5.14441 183.374 4.6673C182.776 4.1902 181.899 3.95165 180.744 3.95165H171.273V9.86357Z" fill="white"/>
<path d="M190.22 0.4045H194.336V20.5361H190.22V0.4045Z" fill="white"/>
<path d="M216.874 16.4289L215.574 16.9579V0.4045H219.69V20.5361H215.574L199.387 4.63619L200.687 4.10723V20.5361H196.571V0.4045H200.687L216.874 16.4289Z" fill="white"/>
<path d="M232.824 0.4045C235.073 0.4045 236.951 0.674166 238.457 1.2135C239.963 1.75283 241.16 2.48923 242.047 3.42269C242.955 4.33541 243.594 5.39333 243.966 6.59646C244.358 7.79958 244.554 9.06494 244.554 10.3925C244.554 11.7201 244.337 12.9959 243.904 14.2197C243.491 15.4436 242.821 16.5326 241.892 17.4868C240.984 18.4203 239.777 19.1671 238.271 19.7271C236.786 20.2665 234.97 20.5361 232.824 20.5361H221.373V0.4045H232.824ZM225.489 16.989H232.731C234.217 16.989 235.444 16.8127 236.414 16.46C237.405 16.0866 238.189 15.5888 238.766 14.9665C239.344 14.3442 239.757 13.6389 240.004 12.8506C240.252 12.0624 240.376 11.243 240.376 10.3925C240.376 9.54205 240.252 8.73304 240.004 7.96553C239.757 7.19802 239.344 6.51348 238.766 5.91192C238.189 5.31036 237.405 4.83325 236.414 4.48061C235.444 4.12797 234.217 3.95165 232.731 3.95165H225.489V16.989Z" fill="white"/>
</svg>
